<svg xmlns="http://www.w3.org/2000/svg" width="47.998" height="40.34" viewBox="0 0 47.998 40.34">
  <g>
    <path d="M47.273,0H40.729a.728.728,0,0,0-.712.58L38.63,7.219H.727a.727.727,0,0,0-.7.912l4.6,17.5c.006.021.019.037.026.059a.792.792,0,0,0,.042.094.747.747,0,0,0,.092.135.831.831,0,0,0,.065.068.626.626,0,0,0,.167.107.285.285,0,0,0,.045.029l13.106,5.145-5.754,2.184a4.382,4.382,0,1,0,.535,1.353l7.234-2.746,6.866,2.7A4.684,4.684,0,1,0,27.6,33.4L22.21,31.287l13.613-5.164c.013-.006.021-.016.033-.021a.712.712,0,0,0,.188-.119.625.625,0,0,0,.063-.072.654.654,0,0,0,.095-.135.58.58,0,0,0,.04-.1.73.73,0,0,0,.033-.084L41.317,1.455H47.27a.728.728,0,0,0,0-1.455ZM8.443,38.885a3.151,3.151,0,1,1,3.152-3.15A3.155,3.155,0,0,1,8.443,38.885Zm23.1-6.3A3.151,3.151,0,1,1,28.4,35.734,3.155,3.155,0,0,1,31.548,32.582ZM25.98,8.672l-.538,7.3H14.661l-.677-7.295Zm-.645,8.75L24.8,24.715H15.472L14.8,17.422ZM1.671,8.672H12.524l.677,7.3H3.591Zm2.3,8.75h9.362l.677,7.293H5.892ZM20.2,30.5,9.175,26.17H31.6Zm14.778-5.781H26.256l.537-7.293h9.7ZM36.8,15.967H26.9l.537-7.295H38.326Z" fill="#1a171b"/>
    <circle cx="8.443" cy="35.734" r="0.728" fill="#1a171b"/>
    <circle cx="31.548" cy="35.734" r="0.728" fill="#1a171b"/>
  </g>
</svg>
